<?xml version="1.0" encoding="utf-8"?>
<!-- Generator: Adobe Illustrator 25.4.1, SVG Export Plug-In . SVG Version: 6.00 Build 0)  -->
<svg version="1.1" id="图层_1" xmlns="http://www.w3.org/2000/svg" xmlns:xlink="http://www.w3.org/1999/xlink" x="0px" y="0px"
	 viewBox="0 0 20 21" style="enable-background:new 0 0 20 21;" xml:space="preserve">
<style type="text/css">
	.st0{fill:#9B9B9B;}
	.st1{fill:none;stroke:#9B9B9B;stroke-width:1.3333;stroke-linecap:round;stroke-linejoin:round;}
</style>
<g id="图标库" transform="translate(-201.000000, -968.000000)">
	<g id="限制发言-2" transform="translate(201.000000, 968.500000)">
		<g id="限制发言" transform="translate(1.666667, 2.500000)">
			<g id="yichu" transform="translate(8.333333, 7.916667) scale(-1, 1) translate(-8.333333, -7.916667) ">
				<path id="形状" class="st0" d="M10.6,8.2h2.2c0.3,0,0.6-0.2,0.6-0.5c0-0.3-0.2-0.5-0.6-0.5H9.5L7.8,5.5h3.9
					c0.3,0,0.6-0.2,0.6-0.5c0-0.3-0.2-0.5-0.6-0.5h-5l-3.1-3c0.5-0.3,1-0.5,1.5-0.7c2.1-0.8,4.4-0.8,6.5,0c1,0.4,1.9,0.9,2.6,1.6
					C15,2.9,15.6,3.8,16,4.7c0.9,1.9,0.9,4.1,0,6c-0.3,0.6-0.7,1.2-1.1,1.8L10.6,8.2L10.6,8.2z M0.7,4.7c0.3-0.6,0.7-1.2,1.1-1.7
					L0.4,1.6C0.2,1.4,0.2,1,0.4,0.8c0.2-0.2,0.6-0.2,0.9,0l14.2,14c0.2,0.2,0.2,0.6,0,0.9c-0.2,0.2-0.6,0.2-0.9,0L13,14
					c-0.5,0.3-0.9,0.5-1.4,0.7c-1,0.4-2.1,0.6-3.2,0.6H1.7c-0.3,0-0.6-0.2-0.6-0.5v-3.3C0.4,10.3,0,9,0,7.7C0,6.6,0.2,5.6,0.7,4.7z
					 M5,11h4.9L8.8,9.9H5c-0.3,0-0.6,0.2-0.6,0.5C4.4,10.7,4.7,11,5,11z M3.9,8.2h3.2L6,7.1H3.9c-0.3,0-0.6,0.2-0.6,0.5
					C3.3,8,3.6,8.2,3.9,8.2L3.9,8.2z"/>
			</g>
			<line id="路径-3" class="st1" x1="1.6" y1="15.3" x2="15.8" y2="1.3"/>
		</g>
	</g>
</g>
</svg>
