<?xml version="1.0" encoding="utf-8"?>
<!-- Generator: Adobe Illustrator 25.4.1, SVG Export Plug-In . SVG Version: 6.00 Build 0)  -->
<svg version="1.1" id="图层_1" xmlns="http://www.w3.org/2000/svg" xmlns:xlink="http://www.w3.org/1999/xlink" x="0px" y="0px"
	 viewBox="0 0 16 16" style="enable-background:new 0 0 16 16;" xml:space="preserve">
<style type="text/css">
	.st0{fill:#6B6E88;}
</style>
<g id="图标库" transform="translate(-73.000000, -748.000000)">
	<g id="编组-2" transform="translate(73.000000, 748.000000)">
		<g id="店铺" transform="translate(0.550005, 1.049995)">
			<path id="形状结合" class="st0" d="M13.1,9.5c0.2,0.1,0.3,0.4,0.3,0.6l0,2.9c0,0.4-0.1,0.7-0.4,1c-0.3,0.3-0.6,0.4-1,0.4H2.9
				c-0.8,0-1.4-0.6-1.4-1.4v-2.9c0-0.3,0.1-0.5,0.3-0.6c0.2-0.1,0.5-0.1,0.7,0c0.2,0.1,0.3,0.4,0.3,0.6l0,2.9c0,0,0,0.1,0,0.1
				c0,0,0.1,0,0.1,0H12c0.1,0,0.1,0,0.1-0.1l0-2.9c0-0.3,0.1-0.5,0.3-0.6C12.6,9.3,12.9,9.3,13.1,9.5z M11.6,0H3.2
				C2.5,0,1.9,0.5,1.7,1.1l0,0.1L0.2,4.9l0,0l0,0.1l0,0l0,0c-0.4,1.6,0.5,3.2,2.1,3.6C2.4,8.7,2.7,8.7,3,8.8c0.8,0,1.6-0.3,2.1-0.9
				l0.1-0.1l0.1,0c0.6,0.6,1.4,1,2.2,1c0.8,0,1.5-0.3,2.1-0.9l0.1-0.1l0.1,0c0.5,0.6,1.3,1,2.1,1.1l0.1,0l0,0l0.1,0
				c0.1,0,0.2,0,0.3,0l0.2,0l0.2,0c0.8-0.2,1.4-0.7,1.8-1.4c0.4-0.6,0.5-1.4,0.3-2.1l0-0.1c0-0.1,0-0.1-0.1-0.2l0-0.1l-1.5-3.6
				C13,0.5,12.4,0,11.6,0z M11.6,1.3c0.2,0,0.3,0.1,0.4,0.2l0,0l1.6,3.8l0,0c0.2,0.9-0.3,1.8-1.2,2c-0.9,0.2-1.8-0.3-2-1.2
				c0-0.2-0.1-0.3-0.3-0.4l-0.1,0c0,0-0.1,0-0.1-0.1c-0.2,0-0.3,0-0.5,0.1C9.2,5.9,9.1,6,9.1,6.1l0,0.1l0,0.1C8.8,7,8.2,7.5,7.5,7.5
				c-0.7,0-1.3-0.4-1.6-1.1l0-0.1l0-0.2C5.7,5.9,5.4,5.7,5,5.8c-0.2,0-0.3,0.2-0.4,0.3c0,0.1-0.1,0.1-0.1,0.2C4.5,6.8,4,7.3,3.4,7.5
				c-0.6,0.2-1.2,0-1.7-0.4c-0.4-0.4-0.6-1-0.5-1.5l0-0.1l0-0.1l1.6-3.7l0-0.1c0-0.1,0.2-0.3,0.3-0.3l0.1,0H11.6z M9.7,3.3l-4.7,0
				L5,3.3c-0.2,0-0.4,0.1-0.5,0.3c-0.1,0.2-0.1,0.4,0,0.6C4.6,4.5,4.8,4.6,5,4.6l0.1,0l4.7,0l0.1,0c0.3,0,0.6-0.3,0.6-0.6
				C10.4,3.6,10.1,3.4,9.7,3.3L9.7,3.3z"/>
		</g>
	</g>
</g>
</svg>
