<?xml version="1.0" encoding="utf-8"?>
<!-- Generator: Adobe Illustrator 25.4.1, SVG Export Plug-In . SVG Version: 6.00 Build 0)  -->
<svg version="1.1" id="图层_1" xmlns="http://www.w3.org/2000/svg" xmlns:xlink="http://www.w3.org/1999/xlink" x="0px" y="0px"
	 viewBox="0 0 24 24" style="enable-background:new 0 0 24 24;" xml:space="preserve">
<style type="text/css">
	.st0{fill:#6B6E88;}
</style>
<g id="图标库" transform="translate(-67.000000, -893.000000)">
	<g id="编组-10" transform="translate(67.000000, 893.000000)">
		<g id="gengduo-8" transform="translate(0.000000, 8.500000)">
			<path id="形状" class="st0" d="M2.2,6C1,6,0,5,0,3.8s1-2.2,2.2-2.2s2.2,1,2.2,2.2S3.5,6,2.2,6z M12,7.5c-2.1,0-3.8-1.7-3.8-3.8
				S9.9,0,12,0s3.8,1.7,3.8,3.8S14.1,7.5,12,7.5z M21.8,6c-1.2,0-2.2-1-2.2-2.2s1-2.2,2.2-2.2s2.2,1,2.2,2.2S23,6,21.8,6z"/>
		</g>
	</g>
</g>
</svg>