<?xml version="1.0" encoding="utf-8"?>
<!-- Generator: Adobe Illustrator 25.4.1, SVG Export Plug-In . SVG Version: 6.00 Build 0)  -->
<svg version="1.1" id="图层_1" xmlns="http://www.w3.org/2000/svg" xmlns:xlink="http://www.w3.org/1999/xlink" x="0px" y="0px"
	 viewBox="0 0 24 24" style="enable-background:new 0 0 24 24;" xml:space="preserve">
<style type="text/css">
	.st0{fill:none;}
	.st1{fill:none;stroke:#000000;stroke-width:1.6727;}
	.st2{fill-rule:evenodd;clip-rule:evenodd;fill:#FFFFFF;stroke:#000000;stroke-width:1.6727;}
	.st3{fill:none;stroke:#000000;stroke-width:1.6727;stroke-linecap:round;stroke-linejoin:round;}
</style>
<g id="图标库" transform="translate(-158.000000, -1030.000000)">
	<g id="待收货" transform="translate(158.000000, 1030.000000)">
		<rect id="矩形备份-17" y="0" class="st0" width="24" height="24"/>
		<g id="编组-23" transform="translate(0.465138, 1.075779)">
			<path id="矩形备份-3" class="st1" d="M18.8,3.4c0.9,0,1.8,0.4,2.4,1s1,1.4,1,2.4l0,0v9.4c0,0.6-0.3,1.2-0.7,1.6
				c-0.4,0.4-1,0.7-1.6,0.7l0,0H3.1c-0.6,0-1.2-0.3-1.6-0.7s-0.7-1-0.7-1.6l0,0V6.7c0-0.9,0.4-1.8,1-2.4s1.4-1,2.4-1l0,0H18.8z"/>
			<path id="矩形备份-3_00000122692036581757821540000017053775943144992946_" class="st2" d="M18.8,0.8c0.9,0,1.8,0.4,2.4,1
				s1,1.4,1,2.4l0,0v8h-11c-0.6,0-1.2-0.3-1.6-0.7c-0.4-0.4-0.7-1-0.7-1.6l0,0V4.2c0-0.9,0.4-1.8,1-2.4c0.6-0.6,1.4-1,2.4-1l0,0
				H18.8z"/>
			<polyline id="路径-10" class="st3" points="1.2,12.3 5.3,12.3 5.3,9.2 			"/>
			<path id="椭圆形" class="st2" d="M6.8,17c0.5,0,0.9,0.2,1.3,0.5c0.3,0.3,0.5,0.8,0.5,1.3c0,0.5-0.2,0.9-0.5,1.3
				c-0.3,0.3-0.8,0.5-1.3,0.5S5.9,20.3,5.5,20C5.2,19.7,5,19.3,5,18.8c0-0.5,0.2-0.9,0.5-1.3C5.9,17.2,6.3,17,6.8,17z"/>
			<path id="椭圆形备份-6" class="st2" d="M17.2,17c0.5,0,0.9,0.2,1.3,0.5c0.3,0.3,0.5,0.8,0.5,1.3c0,0.5-0.2,0.9-0.5,1.3
				c-0.3,0.3-0.8,0.5-1.3,0.5S16.3,20.3,16,20c-0.3-0.3-0.5-0.8-0.5-1.3c0-0.5,0.2-0.9,0.5-1.3C16.3,17.2,16.8,17,17.2,17z"/>
		</g>
	</g>
</g>
</svg>
