<?xml version="1.0" encoding="utf-8"?>
<!-- Generator: Adobe Illustrator 25.4.1, SVG Export Plug-In . SVG Version: 6.00 Build 0)  -->
<svg version="1.1" id="图层_1" xmlns="http://www.w3.org/2000/svg" xmlns:xlink="http://www.w3.org/1999/xlink" x="0px" y="0px"
	 viewBox="0 0 44 44" style="enable-background:new 0 0 44 44;" xml:space="preserve">
<style type="text/css">
	.st0{fill-rule:evenodd;clip-rule:evenodd;fill:#FFFFFF;}
	.st1{fill:#00B2FE;}
</style>
<g id="图标库" transform="translate(-106.000000, -1302.000000)">
	<g id="编组-56" transform="translate(106.000000, 1302.000000)">
		<path id="矩形" class="st0" d="M12,0h20c6.6,0,12,5.4,12,12v20c0,6.6-5.4,12-12,12H12C5.4,44,0,38.6,0,32V12C0,5.4,5.4,0,12,0z"
			/>
		<g id="编组" transform="translate(10.000000, 10.000000)">
			<path id="路径" class="st1" d="M11,2v4.5l-0.2,0C4,7.1,1,12.3,1,21.5c0,1.1,1.5,1.4,1.9,0.4L3,21.7l0.1-0.2l0.1-0.3l0.2-0.3
				c0.5-0.8,1-1.6,1.7-2.4l0.2-0.2c1.5-1.7,3.3-2.8,5.4-3.1l0.2,0v4.4c0,0.9,1,1.3,1.7,0.7l9-8.5c0.4-0.4,0.4-1,0-1.4l-9-9
				C12.1,0.7,11,1.1,11,2z"/>
		</g>
	</g>
</g>
</svg>
