<?xml version="1.0" encoding="utf-8"?>
<!-- Generator: Adobe Illustrator 25.4.1, SVG Export Plug-In . SVG Version: 6.00 Build 0)  -->
<svg version="1.1" id="图层_1" xmlns="http://www.w3.org/2000/svg" xmlns:xlink="http://www.w3.org/1999/xlink" x="0px" y="0px"
	 viewBox="0 0 20 20" style="enable-background:new 0 0 20 20;" xml:space="preserve">
<style type="text/css">
	.st0{fill:#09BB07;}
</style>
<g id="图标库" transform="translate(-290.000000, -1114.000000)">
	<g id="weixinzhifu2" transform="translate(290.000000, 1114.000000)">
		<path id="形状" class="st0" d="M17.5,0h-15C1.1,0,0,1.1,0,2.5v15C0,18.9,1.1,20,2.5,20h15c1.4,0,2.5-1.1,2.5-2.5v-15
			C20,1.1,18.9,0,17.5,0L17.5,0z M10,15.4c-0.9,0-1.6-0.1-2.4-0.4c-0.5,0.3-1.2,0.9-1.5,1c-0.5,0.3-0.4-0.2-0.4-0.2L6,14.3
			c-1.5-1-2.4-2.6-2.4-4.4c0-3.1,2.9-5.6,6.4-5.6c2.1,0,4.1,1,5.2,2.4L9,9.5c0,0-0.5,0.2-1-0.1L7,8.6C7,8.6,6.2,8,6.6,9l1,2.3
			c0,0,0.1,0.6,0.9,0.2c0.6-0.2,5.2-3.1,7.3-4.2c0.4,0.7,0.6,1.6,0.6,2.5C16.4,12.7,13.5,15.4,10,15.4L10,15.4z"/>
	</g>
</g>
</svg>
